<svg version="1.1" id="Layer_1" xmlns="http://www.w3.org/2000/svg" xmlns:xlink="http://www.w3.org/1999/xlink" x="0px" y="0px"
	 width="100%" viewBox="0 0 672 784" enable-background="new 0 0 672 784" xml:space="preserve">
<path fill="#000000" opacity="1.000000" stroke="none" 
	d="
M346.005920,371.058075 
	C364.810974,341.648865 388.937744,318.536591 420.230225,303.453156 
	C430.998627,298.262604 442.406952,294.835907 454.245819,292.621185 
	C466.017761,290.418976 477.793243,288.102966 489.750183,288.989380 
	C502.755676,289.953552 515.673340,291.677521 528.544800,294.265839 
	C549.160034,298.411407 567.954651,306.553436 584.788208,318.660217 
	C615.908997,341.042511 639.871643,369.337982 651.728760,406.451050 
	C657.797791,425.447235 658.487183,445.167877 658.463684,465.057861 
	C658.426270,496.771820 649.942688,525.825073 632.824341,552.226807 
	C613.442078,582.120178 587.575806,604.646851 554.601013,618.873291 
	C541.515320,624.518860 528.014954,628.728821 514.075195,630.806946 
	C502.440613,632.541382 490.515289,632.495117 478.672668,631.945679 
	C448.510040,630.546265 421.211029,620.493958 395.802887,604.702148 
	C392.986053,602.951416 390.367035,600.867554 387.739685,598.830688 
	C385.018799,596.721436 382.594391,596.795837 380.330658,599.461426 
	C380.115784,599.714417 379.861694,599.934814 379.620300,600.164551 
	C370.614105,608.736023 373.276184,609.600891 363.254669,600.125061 
	C354.543274,591.888062 346.351898,583.094849 337.089722,575.450623 
	C334.428131,573.253906 334.676910,571.527466 337.086670,569.406677 
	C340.209930,566.658020 343.096497,563.638794 346.241241,560.916626 
	C348.906616,558.609375 348.988831,556.457397 347.000793,553.585571 
	C333.082794,533.480774 323.749390,511.381927 320.126678,487.208984 
	C316.481354,462.885254 318.274597,438.890533 326.114746,415.337433 
	C331.228943,399.973663 337.277161,385.142548 346.005920,371.058075 
M506.982483,311.249146 
	C493.980072,310.693878 480.951630,310.796600 468.190765,313.396667 
	C443.751617,318.376160 421.283569,327.877197 401.741974,343.767120 
	C373.887573,366.416382 354.734436,394.563202 346.987335,429.936127 
	C341.218536,456.276093 341.760834,482.253418 350.856354,507.972229 
	C361.098175,536.932312 377.310394,561.607788 402.138641,579.889648 
	C420.924988,593.722656 441.815186,603.155273 465.317566,606.038269 
	C490.489075,609.126099 515.320129,608.637512 539.529846,600.005005 
	C567.957520,589.868530 591.293823,572.570312 608.920471,548.313110 
	C623.288818,528.539978 633.329529,506.606598 636.583984,481.894165 
	C638.842834,464.742126 639.048828,447.677582 635.552490,430.797485 
	C630.426392,406.049622 620.422485,383.438538 604.132324,363.816437 
	C588.728638,345.262115 569.934937,331.357391 547.647400,322.216949 
	C534.848999,316.968170 521.407654,313.965057 506.982483,311.249146 
z"/>
<path fill="#000000" opacity="1.000000" stroke="none" 
	d="
M357.644470,98.446732 
	C346.743652,92.944252 336.662811,86.767441 326.717712,80.378281 
	C323.977692,78.617966 321.842957,78.579399 319.012543,80.316963 
	C289.813049,98.242317 258.329742,111.252571 226.409439,123.379555 
	C202.988785,132.277390 178.676041,138.226547 154.796906,145.591400 
	C140.596451,149.971130 125.864563,152.553406 111.284393,155.599411 
	C101.895508,157.560913 92.559608,159.779266 83.100006,161.426483 
	C80.742981,161.836914 79.453735,163.344116 79.189987,165.908920 
	C78.045883,177.034683 78.433426,188.176620 78.601814,199.320969 
	C78.782959,211.309586 78.894493,223.299240 79.037102,235.288452 
	C79.060661,237.269211 78.243515,238.907211 76.698883,240.043076 
	C69.570038,245.285324 62.858265,250.969421 57.214523,257.837189 
	C56.944191,258.166168 56.341545,258.222107 55.856754,258.420258 
	C53.454578,257.321777 53.859207,255.137100 53.858467,253.242783 
	C53.844769,218.085251 53.856815,182.927673 53.900246,147.770157 
	C53.906776,142.482788 56.434196,140.127090 62.091072,139.037872 
	C78.030289,135.968796 94.044884,133.337708 109.963341,130.109024 
	C131.033890,125.835358 151.764053,120.277359 172.358353,114.339859 
	C207.130905,104.314644 241.299530,92.412201 273.723267,76.104744 
	C288.872742,68.485336 303.877472,60.510883 317.606750,50.446228 
	C320.350739,48.434639 322.324493,48.420723 325.130432,50.319489 
	C354.726501,70.347000 386.500153,86.090477 420.066406,98.289330 
	C438.592712,105.022285 457.421326,110.821175 476.375122,116.165092 
	C493.371216,120.957047 510.460663,125.503601 527.684448,129.378296 
	C544.450073,133.149948 561.442261,135.911987 578.325256,139.167847 
	C581.091675,139.701355 583.818115,140.456573 586.544373,141.179779 
	C589.516663,141.968231 590.189392,144.223740 590.178406,146.960968 
	C590.149048,154.292313 590.183411,161.623871 590.181152,168.955353 
	C590.169006,208.278854 590.154419,247.602341 590.135071,286.925842 
	C590.134338,288.424255 590.196167,289.937317 590.016724,291.417816 
	C589.716614,293.893890 588.238403,294.620544 586.169250,293.307800 
	C580.795593,289.898651 574.954895,287.469299 569.104187,285.092621 
	C565.899048,283.790649 565.845947,281.349884 565.846802,278.577759 
	C565.856445,246.419220 565.827209,214.260666 565.809509,182.102127 
	C565.806641,176.936783 565.791565,171.771332 565.816528,166.606110 
	C565.831421,163.524567 564.673523,161.822815 561.340332,161.160873 
	C543.779846,157.673599 526.115723,154.776917 508.700348,150.462524 
	C478.132843,142.889893 447.948486,134.175262 418.181549,123.864296 
	C397.547058,116.716705 377.598083,108.102875 357.644470,98.446732 
z"/>
<path fill="#000000" opacity="1.000000" stroke="none" 
	d="
M296.913513,258.972229 
	C277.839447,267.284760 259.062103,275.324188 240.382507,283.584564 
	C230.216782,288.080017 219.698578,291.781616 209.885498,297.074829 
	C207.715210,298.245453 206.528366,297.293915 205.716705,295.189545 
	C203.441681,289.291168 200.955719,283.507172 197.243362,278.302460 
	C195.734573,276.187103 196.756943,274.672394 199.079285,273.688080 
	C206.252731,270.647675 213.383408,267.505920 220.518890,264.376617 
	C251.394653,250.835831 282.188477,237.102737 313.210907,223.906967 
	C318.794464,221.531952 319.797333,219.010986 319.276825,213.196579 
	C317.281250,190.906372 332.314087,165.489197 357.105133,159.622360 
	C372.192505,156.051941 386.114716,157.659348 399.078918,165.649353 
	C411.104401,173.060837 420.036011,182.918274 423.554657,197.439713 
	C427.126099,212.179062 425.669678,226.371124 417.833008,238.602173 
	C407.481354,254.758423 392.234955,264.715424 372.036285,264.027649 
	C366.597687,263.842438 364.015839,265.702545 361.982483,270.557587 
	C351.651520,295.224518 341.011230,319.761871 330.484253,344.346710 
	C325.450043,356.103638 320.366791,367.840240 315.448029,379.645294 
	C314.431458,382.085114 313.343811,383.737427 310.827576,381.682800 
	C306.389374,378.058716 301.125671,375.886200 296.285797,372.976562 
	C293.482727,371.291443 292.693726,369.725403 294.240479,366.140198 
	C306.010345,338.858673 317.400208,311.413361 328.948273,284.035919 
	C332.549194,275.499023 336.179565,266.971863 339.990082,258.527618 
	C341.330872,255.556351 341.160675,253.522369 338.655090,251.112915 
	C331.120331,243.867218 331.253052,243.792938 321.405243,248.201950 
	C313.381805,251.794174 305.304443,255.266006 296.913513,258.972229 
z"/>
<path fill="#000000" opacity="1.000000" stroke="none" 
	d="
M94.075653,259.043884 
	C115.952652,242.001785 139.257446,241.525650 163.269608,252.362015 
	C181.120285,260.417786 192.622116,275.297455 198.523468,293.142151 
	C204.457291,311.085083 202.622665,329.406219 193.124786,346.592560 
	C183.630463,363.772430 170.145874,375.726196 151.055634,380.717865 
	C141.914124,383.108185 132.803726,383.904816 123.136986,381.567444 
	C114.031479,379.365723 105.064537,377.503906 97.328224,371.989563 
	C83.212914,361.928345 75.025269,347.594727 69.170258,331.800476 
	C66.872574,325.602295 65.318581,319.085846 65.653595,312.278381 
	C66.741150,290.179077 75.937492,272.423004 94.075653,259.043884 
z"/>
<path fill="#000000" opacity="1.000000" stroke="none" 
	d="
M314.287842,594.709900 
	C327.421875,606.117249 338.337463,619.132629 349.436951,631.973206 
	C351.943726,634.873230 351.771179,638.169495 350.156860,641.283752 
	C349.105804,643.311279 347.559570,645.166931 345.933350,646.798828 
	C321.018463,671.800781 296.097015,696.796631 271.078247,721.694458 
	C261.998688,730.730164 246.200378,731.240723 236.876862,722.506714 
	C230.209702,716.261230 223.448547,709.840881 218.145020,702.478760 
	C210.015594,691.193848 209.640991,678.049866 221.122086,666.396729 
	C242.736526,644.458374 264.443573,622.611328 286.100708,600.714905 
	C289.611816,597.165039 293.034882,593.527954 296.550812,589.982910 
	C301.110962,585.385010 304.756744,585.383911 309.405792,589.911560 
	C310.956207,591.421570 312.477051,592.962036 314.287842,594.709900 
z"/>
<path fill="#000000" opacity="1.000000" stroke="none" 
	d="
M154.829147,556.168335 
	C172.436234,575.729431 192.675964,591.604614 214.214554,605.925598 
	C218.787918,608.966431 223.332809,612.052734 227.965378,615.000916 
	C231.364670,617.164246 231.730194,619.203247 228.430008,621.883606 
	C224.300171,625.237732 220.360580,628.827087 216.361328,632.340515 
	C214.617004,633.872986 213.049759,633.906677 210.998550,632.602112 
	C183.181183,614.909973 157.526062,594.583435 136.045532,569.464905 
	C113.334724,542.907715 96.612442,512.806946 84.636635,479.976349 
	C78.965401,464.429169 73.184433,448.923889 69.640739,432.743408 
	C67.266808,421.904083 65.905731,410.845917 63.668499,399.972656 
	C62.198597,392.828735 62.456085,385.449127 60.351871,378.422882 
	C59.922016,376.987579 59.323498,375.319916 61.154701,374.504272 
	C62.535217,373.889404 63.736374,374.778931 64.546638,375.932587 
	C68.474144,381.524445 73.907784,385.594360 79.704773,388.688843 
	C85.923798,392.008575 88.402367,396.821411 89.143822,403.318390 
	C90.286987,413.335297 92.814766,423.080872 94.943047,432.920227 
	C100.381035,458.060791 110.054001,481.581665 121.261200,504.543182 
	C130.270142,523.000916 141.466354,540.091309 154.829147,556.168335 
z"/>
<path fill="#000000" opacity="1.000000" stroke="none" 
	d="
M290.447876,374.190979 
	C309.474121,379.346863 318.828064,392.855804 321.851562,410.678345 
	C322.857056,416.605499 319.602753,423.250488 318.319794,429.572174 
	C317.238373,434.900940 315.820160,440.195679 315.225311,445.579987 
	C314.511047,452.044769 310.848999,455.865631 305.314453,458.194763 
	C295.808105,462.195435 286.110504,465.129089 275.541260,465.038818 
	C248.412247,464.807037 227.462936,435.444519 235.810730,409.603088 
	C240.866043,393.953918 248.909164,381.255188 265.011505,375.356476 
	C273.144897,372.377075 281.600403,372.713898 290.447876,374.190979 
z"/>
<path fill="#000000" opacity="1.000000" stroke="none" 
	d="
M454.996033,653.264465 
	C440.447113,666.021423 424.733368,676.602966 408.496429,686.436279 
	C387.442169,699.186829 365.938782,711.090637 343.372803,721.008301 
	C339.368408,722.768188 335.794342,722.597351 331.942352,720.613281 
	C325.275146,717.179199 318.867065,713.349365 312.568756,709.286377 
	C309.156525,707.085205 309.345734,705.063782 312.025909,702.603821 
	C315.703308,699.228577 319.416626,695.891235 323.044189,692.463196 
	C325.132019,690.490173 327.106140,689.927307 329.665192,691.788696 
	C334.755249,695.490845 339.850708,695.083069 345.499634,692.371460 
	C370.417084,680.410522 394.529633,667.092407 417.199829,651.235474 
	C420.061310,649.234009 422.931030,647.244324 425.794373,645.245483 
	C428.590088,643.293945 431.293488,642.931519 434.657074,644.391113 
	C439.958649,646.691650 445.328094,649.052979 451.331787,649.119202 
	C453.665192,649.144897 455.754822,649.815918 454.996033,653.264465 
z"/>
<path fill="#000000" opacity="1.000000" stroke="none" 
	d="
M192.550781,357.623840 
	C195.910294,352.806396 198.500641,347.964966 201.007599,343.072113 
	C202.332718,340.485870 203.866577,339.188934 206.865417,341.344727 
	C218.348862,349.599854 231.120453,355.743378 243.106842,363.183014 
	C248.699188,366.654053 254.370300,369.998199 261.015350,374.009308 
	C253.135071,378.058685 246.778671,382.426483 242.510498,389.202545 
	C241.517685,390.778748 239.979492,390.262054 238.536697,389.423859 
	C223.739090,380.827118 208.914963,372.275970 194.119934,363.674805 
	C191.848434,362.354279 189.646194,360.857086 192.550781,357.623840 
z"/>
<path fill="#000000" opacity="1.000000" stroke="none" 
	d="
M389.821533,493.000000 
	C389.834106,464.174377 389.677094,435.847015 389.968811,407.524261 
	C390.048676,399.767731 391.365509,392.052002 395.284790,384.992126 
	C399.903015,376.673309 407.435211,373.441681 416.251801,372.621613 
	C430.205353,371.323761 444.216125,372.013824 458.200653,371.989227 
	C494.857025,371.924713 531.516113,372.282715 568.169250,371.942383 
	C585.241943,371.783875 595.824524,384.401093 595.851257,400.098236 
	C595.924255,442.913788 595.592590,485.730225 595.728821,528.545349 
	C595.756897,537.347656 592.421753,543.776917 585.750427,549.120422 
	C582.323486,551.865295 578.578857,552.328491 574.523987,552.325134 
	C526.204895,552.285095 477.885834,552.256531 429.566772,552.222290 
	C423.402222,552.217896 417.235107,552.305664 411.073700,552.160461 
	C402.021118,551.947327 393.346405,542.506226 391.567657,533.747009 
	C388.841583,520.322327 390.402832,506.904785 389.821533,493.000000 
M575.722534,485.500244 
	C575.717102,482.834259 575.707703,480.168304 575.706787,477.502319 
	C575.697632,450.843994 575.674988,424.185699 575.697876,397.527374 
	C575.701233,393.621582 575.177979,390.758392 570.055542,390.797943 
	C544.398438,390.996277 518.739563,390.972046 493.081268,391.005127 
	C467.755768,391.037781 442.430084,391.003265 417.104828,391.088623 
	C409.058929,391.115753 408.135284,392.103943 408.124115,399.931458 
	C408.090576,423.424225 408.103149,446.917023 408.104126,470.409821 
	C408.104248,473.242004 408.112762,476.074921 408.178009,478.906097 
	C408.208679,480.237793 408.232422,481.713226 409.656738,482.382416 
	C411.239349,483.126007 412.580505,482.282684 413.745667,481.283630 
	C414.498627,480.638031 415.116547,479.834015 415.789215,479.095764 
	C426.677429,467.145813 438.108307,455.718811 449.840424,444.614868 
	C458.232452,436.672150 464.448944,436.831726 471.824615,445.424591 
	C482.219543,457.534912 492.917175,469.379364 503.126984,481.661682 
	C512.062805,492.411438 511.147369,491.988159 519.164795,482.153961 
	C519.270081,482.024811 519.372986,481.893738 519.478638,481.764893 
	C526.157104,473.619995 528.402344,473.478180 535.653259,480.781799 
	C547.032532,492.243774 557.235779,504.828796 569.108521,515.820068 
	C570.419800,517.033997 571.501953,518.940002 573.670532,518.144714 
	C576.105530,517.251831 575.664917,514.938293 575.675049,512.992065 
	C575.721008,504.161591 575.713318,495.330872 575.722534,485.500244 
M536.183105,535.624146 
	C541.800476,533.792725 544.031189,530.731201 543.049561,525.966125 
	C542.176880,521.729797 539.717102,519.183655 535.154480,519.305969 
	C531.429810,519.405762 527.880188,523.361328 527.798340,527.367310 
	C527.724792,530.970520 531.408447,534.975342 536.183105,535.624146 
M435.186218,532.309448 
	C437.681763,535.368225 440.824127,535.968933 444.061005,533.948669 
	C447.408691,531.859314 448.231995,528.491394 447.263885,524.748535 
	C446.440887,521.566772 444.620270,519.440125 441.050293,519.261780 
	C436.940948,519.056519 435.175110,521.739929 433.774109,524.956665 
	C432.704315,527.412964 434.200348,529.467346 435.186218,532.309448 
M477.462952,531.992249 
	C480.707733,526.393921 479.181885,520.533203 474.133667,519.473694 
	C470.641693,518.740723 467.944244,519.856140 466.339752,523.234802 
	C464.494019,527.121704 464.652954,530.876038 468.027466,533.638794 
	C471.051880,536.114929 474.259430,535.257141 477.462952,531.992249 
M506.398254,533.040710 
	C507.193573,532.193542 507.971283,531.329041 508.787201,530.502136 
	C512.193970,527.049561 510.251373,524.127808 507.769592,521.405640 
	C505.567535,518.990356 502.907196,518.573242 500.208496,520.590088 
	C497.059631,522.943359 496.218567,528.218506 498.377747,531.950256 
	C500.238373,535.166016 502.771515,535.781006 506.398254,533.040710 
z"/>
<path fill="#000000" opacity="1.000000" stroke="none" 
	d="
M528.465759,453.841736 
	C522.776306,449.819458 517.617249,445.537170 515.829834,439.021271 
	C511.963837,424.927795 516.504822,407.574188 536.983948,406.279327 
	C547.516479,405.613342 554.607910,410.407196 559.771423,418.500122 
	C565.367310,427.270630 564.712830,436.517456 559.447388,445.352661 
	C553.600220,455.164185 540.898804,458.694916 528.465759,453.841736 
z"/>
</svg>